<?xml version="1.0" standalone="no"?>
<!DOCTYPE svg PUBLIC "-//W3C//DTD SVG 20010904//EN"
 "http://www.w3.org/TR/2001/REC-SVG-20010904/DTD/svg10.dtd">
<svg version="1.0" xmlns="http://www.w3.org/2000/svg"
 width="260.000000pt" height="260.000000pt" viewBox="0 0 260.000000 260.000000"
 preserveAspectRatio="xMidYMid meet">
<metadata>
Created by potrace 1.14, written by Peter Selinger 2001-2017
</metadata>
<g transform="translate(0.000000,260.000000) scale(0.100000,-0.100000)"
fill="#000000" stroke="none">
<path d="M0 1300 l0 -1300 1300 0 1300 0 0 1300 0 1300 -1300 0 -1300 0 0
-1300z m934 1098 c6 -37 2 -96 -10 -155 -6 -31 -31 -53 -61 -53 -41 0 -63 27
-63 75 l0 42 -92 7 c-50 3 -93 5 -94 3 -2 -1 0 -76 3 -166 l6 -164 99 7 99 6
-3 -67 -3 -68 -98 2 -99 3 4 -220 c3 -189 1 -221 -12 -224 -41 -12 -103 -17
-128 -11 l-28 6 4 438 4 438 -26 25 c-22 20 -27 32 -24 64 l3 39 240 5 c132 3
247 7 256 8 12 1 18 -9 23 -40z m630 0 c6 -37 2 -96 -10 -155 -6 -31 -31 -53
-61 -53 -41 0 -63 27 -63 75 l0 42 -111 7 c-61 4 -112 6 -114 4 -2 -2 0 -77 3
-167 l5 -164 108 7 109 6 0 -71 0 -72 -110 7 -110 6 0 -103 c0 -57 -3 -132 -6
-166 l-7 -61 85 0 c47 0 100 3 117 6 29 6 31 9 31 50 0 39 4 45 31 60 40 20
74 7 90 -33 11 -30 18 -187 8 -197 -3 -3 -120 -3 -260 1 l-254 6 3 437 c4 406
3 438 -14 454 -11 11 -18 34 -18 59 l-1 42 255 5 c140 3 262 7 271 8 12 1 18
-9 23 -40z m651 1 c8 -47 -2 -144 -18 -174 -13 -26 -27 -35 -56 -35 -39 0 -61
27 -61 75 l0 42 -111 7 c-61 4 -112 6 -114 4 -2 -2 0 -77 3 -167 l5 -164 108
7 109 6 0 -71 0 -72 -110 7 -110 6 0 -112 c0 -62 -3 -137 -6 -165 l-7 -53 85
0 c47 0 100 3 117 6 28 6 31 10 31 45 0 93 108 103 127 12 9 -44 11 -169 2
-177 -3 -3 -120 -3 -260 1 l-254 6 3 437 c3 377 2 439 -11 452 -15 14 -20 41
-18 85 l1 23 253 3 c138 1 259 3 269 5 12 1 18 -9 23 -39z m-1205 -1068 c175
-53 288 -165 325 -322 43 -183 -12 -379 -142 -508 -123 -121 -269 -173 -488
-174 -145 0 -208 13 -227 46 -10 16 -14 125 -18 418 -5 372 -6 398 -24 418
-11 12 -25 21 -33 21 -10 0 -13 11 -11 42 l3 43 90 17 c196 38 396 38 525 -1z
m1071 0 c97 -37 161 -128 139 -197 -14 -42 -35 -54 -94 -54 -67 0 -95 16 -102
59 -15 92 -49 132 -121 138 -97 10 -163 -46 -163 -137 0 -27 8 -58 20 -78 22
-36 115 -100 235 -160 205 -103 280 -226 233 -386 -18 -59 -98 -137 -173 -167
-81 -32 -282 -35 -360 -5 -113 43 -178 112 -178 189 0 55 28 77 95 77 59 0 88
-13 88 -42 0 -41 23 -97 51 -124 59 -56 230 -40 264 26 19 37 19 123 0 159
-23 46 -95 102 -202 159 -203 109 -271 190 -261 315 10 116 78 200 193 237 82
27 254 23 336 -9z"/>
<path d="M666 861 c1 -289 5 -404 14 -421 11 -21 17 -22 99 -18 106 5 182 38
242 106 123 140 132 445 18 600 -66 90 -158 132 -288 132 l-86 0 1 -399z"/>
</g>
</svg>
